<svg class="svg-icon" style="width: 12px; height: 12px;vertical-align: middle;fill: currentColor;overflow: hidden;" viewBox="0 0 1024 1024" version="1.1" xmlns="http://www.w3.org/2000/svg"><path d="M452.5 192.5c33.8 0 66.6 6.4 97.8 19 32.2 13.1 61.1 32.2 85.9 57 24.8 24.8 44 53.7 57 85.9 12.6 31.1 19 64 19 97.8s-6.4 66.6-19 97.8c-13 32.2-32.2 61.1-57 85.9-24.8 24.8-53.7 44-85.9 57-31.1 12.6-64 19-97.8 19s-66.6-6.4-97.8-19c-32.2-13-61.1-32.2-85.9-57-24.8-24.8-44-53.7-57-85.9-12.6-31.1-19-64-19-97.8s6.4-66.6 19-97.8c13-32.2 32.2-61.1 57-85.9 24.8-24.8 53.7-44 85.9-57 31.2-12.6 64.1-19 97.8-19m0-50c-79.3 0-158.5 30.2-219 90.7-120.9 120.9-120.9 317 0 438 60.5 60.5 139.7 90.7 219 90.7 79.3 0 158.5-30.2 219-90.7 120.9-120.9 120.9-317 0-438-60.5-60.4-139.7-90.7-219-90.7z" fill="#666666" /><path d="M856.2 881.5c-6.4 0-12.8-2.4-17.7-7.3L645.4 681c-9.8-9.8-9.8-25.6 0-35.4 9.8-9.8 25.6-9.8 35.4 0l193.1 193.1c9.8 9.8 9.8 25.6 0 35.4-4.9 4.9-11.3 7.4-17.7 7.4z" fill="#666666" /></svg>