
<svg width="290" height="292" viewBox="0 0 290 292" fill="none" xmlns="http://www.w3.org/2000/svg">
<ellipse cx="145" cy="146" rx="145" ry="146" fill="#D9D9D9"/>
<path d="M49.25 182V123.818H74.3636C78.6818 123.818 82.4602 124.604 85.6989 126.176C88.9375 127.748 91.4564 130.011 93.2557 132.966C95.0549 135.92 95.9545 139.462 95.9545 143.591C95.9545 147.758 95.0265 151.271 93.1705 154.131C91.3333 156.991 88.7481 159.15 85.4148 160.608C82.1004 162.066 78.2273 162.795 73.7955 162.795H58.7955V150.523H70.6136C72.4697 150.523 74.0511 150.295 75.358 149.841C76.6837 149.367 77.697 148.619 78.3977 147.597C79.1174 146.574 79.4773 145.239 79.4773 143.591C79.4773 141.924 79.1174 140.57 78.3977 139.528C77.697 138.468 76.6837 137.691 75.358 137.199C74.0511 136.687 72.4697 136.432 70.6136 136.432H65.0455V182H49.25ZM83.3409 155.295L97.8864 182H80.7273L66.5227 155.295H83.3409ZM122.886 182.795C118.227 182.795 114.212 181.905 110.841 180.125C107.489 178.326 104.903 175.75 103.085 172.398C101.286 169.027 100.386 164.992 100.386 160.295C100.386 155.788 101.295 151.848 103.114 148.477C104.932 145.106 107.498 142.483 110.812 140.608C114.127 138.733 118.038 137.795 122.545 137.795C125.841 137.795 128.824 138.307 131.494 139.33C134.165 140.352 136.447 141.839 138.341 143.79C140.235 145.722 141.693 148.07 142.716 150.835C143.739 153.6 144.25 156.716 144.25 160.182V163.818H105.273V155.182H129.818C129.799 153.932 129.477 152.833 128.852 151.886C128.246 150.92 127.422 150.172 126.381 149.642C125.358 149.093 124.193 148.818 122.886 148.818C121.617 148.818 120.453 149.093 119.392 149.642C118.331 150.172 117.479 150.911 116.835 151.858C116.21 152.805 115.879 153.913 115.841 155.182V164.5C115.841 165.902 116.134 167.152 116.722 168.25C117.309 169.348 118.152 170.21 119.25 170.835C120.348 171.46 121.674 171.773 123.227 171.773C124.307 171.773 125.292 171.621 126.182 171.318C127.091 171.015 127.867 170.58 128.511 170.011C129.155 169.424 129.629 168.723 129.932 167.909H144.25C143.758 170.939 142.593 173.572 140.756 175.807C138.919 178.023 136.485 179.746 133.455 180.977C130.443 182.189 126.92 182.795 122.886 182.795ZM162.808 182.682C160.024 182.682 157.562 182.227 155.422 181.318C153.301 180.39 151.634 178.989 150.422 177.114C149.21 175.239 148.604 172.852 148.604 169.955C148.604 167.568 149.011 165.532 149.825 163.847C150.64 162.142 151.776 160.75 153.234 159.67C154.693 158.591 156.388 157.767 158.32 157.199C160.27 156.631 162.373 156.261 164.626 156.091C167.07 155.902 169.03 155.674 170.507 155.409C172.003 155.125 173.083 154.737 173.746 154.244C174.409 153.733 174.74 153.061 174.74 152.227V152.114C174.74 150.977 174.304 150.106 173.433 149.5C172.562 148.894 171.445 148.591 170.081 148.591C168.585 148.591 167.363 148.922 166.416 149.585C165.488 150.229 164.929 151.223 164.74 152.568H150.308C150.498 149.917 151.34 147.473 152.837 145.239C154.352 142.985 156.558 141.186 159.456 139.841C162.354 138.477 165.971 137.795 170.308 137.795C173.433 137.795 176.236 138.165 178.717 138.903C181.198 139.623 183.31 140.636 185.053 141.943C186.795 143.231 188.121 144.746 189.03 146.489C189.958 148.212 190.422 150.087 190.422 152.114V182H175.763V175.864H175.422C174.551 177.492 173.49 178.809 172.24 179.812C171.009 180.816 169.598 181.545 168.007 182C166.435 182.455 164.702 182.682 162.808 182.682ZM167.922 172.795C169.115 172.795 170.232 172.549 171.274 172.057C172.335 171.564 173.196 170.854 173.859 169.926C174.522 168.998 174.854 167.871 174.854 166.545V162.909C174.437 163.08 173.992 163.241 173.518 163.392C173.064 163.544 172.571 163.686 172.041 163.818C171.53 163.951 170.981 164.074 170.393 164.188C169.825 164.301 169.229 164.405 168.604 164.5C167.392 164.689 166.397 165.002 165.621 165.438C164.863 165.854 164.295 166.375 163.916 167C163.556 167.606 163.376 168.288 163.376 169.045C163.376 170.258 163.803 171.186 164.655 171.83C165.507 172.473 166.596 172.795 167.922 172.795ZM213.71 182.568C210.604 182.568 207.744 181.754 205.131 180.125C202.536 178.496 200.453 176.025 198.881 172.71C197.328 169.396 196.551 165.22 196.551 160.182C196.551 154.917 197.366 150.636 198.994 147.341C200.642 144.045 202.763 141.631 205.358 140.097C207.972 138.562 210.718 137.795 213.597 137.795C215.756 137.795 217.65 138.174 219.278 138.932C220.907 139.67 222.271 140.665 223.369 141.915C224.468 143.146 225.301 144.5 225.869 145.977H226.097V123.818H241.778V182H226.21V174.841H225.869C225.263 176.318 224.392 177.644 223.256 178.818C222.138 179.973 220.775 180.892 219.165 181.574C217.574 182.237 215.756 182.568 213.71 182.568ZM219.506 170.523C220.945 170.523 222.176 170.106 223.199 169.273C224.241 168.42 225.036 167.227 225.585 165.693C226.153 164.14 226.438 162.303 226.438 160.182C226.438 158.023 226.153 156.176 225.585 154.642C225.036 153.089 224.241 151.905 223.199 151.091C222.176 150.258 220.945 149.841 219.506 149.841C218.066 149.841 216.835 150.258 215.812 151.091C214.809 151.905 214.032 153.089 213.483 154.642C212.953 156.176 212.688 158.023 212.688 160.182C212.688 162.341 212.953 164.197 213.483 165.75C214.032 167.284 214.809 168.468 215.812 169.301C216.835 170.116 218.066 170.523 219.506 170.523Z" fill="black"/>
</svg>
